<svg xmlns="http://www.w3.org/2000/svg" xmlns:xlink="http://www.w3.org/1999/xlink" version="1.1" x="0px" y="0px" viewBox="0 0 64 80" style="enable-background:new 0 0 64 64;" xml:space="preserve"><g><path d="M61,51.184V48c0-1.302-0.839-2.402-2-2.816V42c0-1.302-0.839-2.402-2-2.816V36c0-1.302-0.839-2.402-2-2.816V30   c0-1.434-1.013-2.633-2.36-2.928l2.377-2.716l-0.018-0.401C54.989,23.725,53.705,1,32,1S9.011,23.725,9.001,23.955l-0.018,0.401   l2.377,2.716C10.013,27.367,9,28.566,9,30v3.184C7.839,33.598,7,34.698,7,36v3.184C5.839,39.598,5,40.698,5,42v3.184   C3.839,45.598,3,46.698,3,48v3.184C1.839,51.598,1,52.698,1,54v4c0,1.654,1.346,3,3,3h1.184C5.598,62.161,6.698,63,8,63h16   c1.302,0,2.402-0.839,2.816-2h10.369c0.414,1.161,1.514,2,2.816,2h16c1.302,0,2.402-0.839,2.816-2H60c1.654,0,3-1.346,3-3v-4   C63,52.698,62.161,51.598,61,51.184z M47.281,35H54c0.551,0,1,0.449,1,1v3h-8.719L47.281,35z M52,29c0.551,0,1,0.449,1,1v3h-5.219   l0.131-0.523L51,28.947V29H52z M49.958,13.406c2.33,4.426,2.893,8.926,3.013,10.251l-6.883,7.866l-3.68,14.719   C42.297,46.688,41.898,47,41.438,47h-4.026c0.08-0.259,0.156-0.52,0.199-0.795l2.362-14.959c2.805-2.188,4.688-5.493,4.976-9.245   H45c2.206,0,4-1.794,4-4s-1.794-4-4-4v-2H35V9.979C36.246,9.041,37,7.563,37,6c0-0.957-0.269-1.873-0.763-2.658   C42.37,4.37,46.977,7.74,49.958,13.406z M29.094,5.234c0.255-1.042,1.128-1.906,2.173-2.148C31.515,3.028,31.76,3,32.002,3   c0.006,0,0.011,0,0.016,0c0.672,0.003,1.31,0.223,1.846,0.649C34.586,4.223,35,5.08,35,6c0,1.068-0.562,2.033-1.503,2.581L33,8.87   V21c0,0.551-0.449,1-1,1s-1-0.449-1-1V8.87l-0.497-0.289C29.319,7.892,28.766,6.578,29.094,5.234z M32,24c1.654,0,3-1.346,3-3v-7h8   v7c0,6.065-4.935,11-11,11s-11-4.935-11-11v-7h8v7C29,22.654,30.346,24,32,24z M32,34c2.057,0,3.996-0.493,5.727-1.347L37,37.255   V37h-6v2h5.724l-0.316,2h-8.817l-0.316-2H29v-2h-2v0.255l-0.727-4.602C28.004,33.507,29.943,34,32,34z M28.223,45l-0.316-2h8.186   l-0.316,2H28.223z M35.267,47c-0.614,1.202-1.847,2-3.267,2c-1.42,0-2.653-0.798-3.267-2H35.267z M45,16c1.103,0,2,0.897,2,2   s-0.897,2-2,2V16z M14.011,13.463c2.98-5.7,7.596-9.089,13.749-10.121c-0.272,0.435-0.485,0.908-0.609,1.416   C26.664,6.754,27.401,8.781,29,9.98V12H19v2c-2.206,0-4,1.794-4,4s1.794,4,4,4h0.051c0.288,3.752,2.171,7.058,4.976,9.245   l2.362,14.959c0.043,0.275,0.12,0.536,0.199,0.795h-4.026c-0.46,0-0.859-0.312-0.97-0.758l-3.68-14.719l-6.883-7.867   C11.146,22.339,11.7,17.886,14.011,13.463z M19,20c-1.103,0-2-0.897-2-2s0.897-2,2-2V20z M12,29h1v-0.053l3.088,3.53L16.219,33H11   v-3C11,29.449,11.449,29,12,29z M10,35h6.719l1,4H9v-3C9,35.449,9.449,35,10,35z M8,41h10.219l1,4H7v-3C7,41.449,7.449,41,8,41z    M6,47h13.744c0.421,1.188,1.536,2,2.818,2h5.109c1.046,1.233,2.6,2,4.329,2s3.283-0.767,4.329-2h5.109   c1.282,0,2.397-0.812,2.818-2H53v-2h-8.219l1-4H56c0.551,0,1,0.449,1,1v3h-2v2h3c0.551,0,1,0.449,1,1v3h-7h-8H32H20h-8H5v-3   C5,47.449,5.449,47,6,47z M37,59H27v-1c0-1.958-0.81-3.728-2.11-5H39.11c-1.3,1.272-2.11,3.042-2.11,5V59z M3,58v-4   c0-0.551,0.449-1,1-1h3.11C5.81,54.272,5,56.042,5,58v1H4C3.449,59,3,58.551,3,58z M25,60c0,0.551-0.449,1-1,1H8   c-0.551,0-1-0.449-1-1v-2c0-2.757,2.243-5,5-5h8c2.757,0,5,2.243,5,5V60z M57,60c0,0.551-0.449,1-1,1H40c-0.551,0-1-0.449-1-1v-2   c0-2.757,2.243-5,5-5h8c2.757,0,5,2.243,5,5V60z M61,58c0,0.551-0.449,1-1,1h-1v-1c0-1.958-0.81-3.728-2.11-5H60   c0.551,0,1,0.449,1,1V58z"/><path d="M39,21c1.654,0,3-1.346,3-3s-1.346-3-3-3s-3,1.346-3,3S37.346,21,39,21z M39,17c0.551,0,1,0.449,1,1s-0.449,1-1,1   s-1-0.449-1-1S38.449,17,39,17z"/><path d="M25,15c-1.654,0-3,1.346-3,3s1.346,3,3,3s3-1.346,3-3S26.654,15,25,15z M25,19c-0.551,0-1-0.449-1-1s0.449-1,1-1   s1,0.449,1,1S25.551,19,25,19z"/></g><text x="0" y="79" fill="#000000" font-size="5px" font-weight="bold" font-family="'Helvetica Neue', Helvetica, Arial-Unicode, Arial, Sans-serif">Created by Eucalyp</text><text x="0" y="84" fill="#000000" font-size="5px" font-weight="bold" font-family="'Helvetica Neue', Helvetica, Arial-Unicode, Arial, Sans-serif">from the Noun Project</text></svg>